<svg width="490" height="217" viewBox="0 0 490 217" fill="none" xmlns="http://www.w3.org/2000/svg">
<path d="M40.1392 178.63V66.7486H0V35.6705L165.214 19.9441C146.827 37.1633 138.92 47.6306 128.831 67.6365L81.8307 66.7486V178.63H40.1392Z" fill="white"/>
<path d="M312.478 189.903C364.454 125.735 354.925 62.4337 314.211 19.077L395.751 36.4197V86.8106L438.994 36.4197H486.452L436.111 95.0241L490 179.379H445.647L410.387 121.663L395.751 138.09V179.379L312.478 189.903Z" fill="white"/>
<path d="M290.236 12.6854C295.281 16.721 299.699 21.356 303.479 26.4767C327.071 58.4372 325.825 109.319 297.421 151.472C269.017 193.626 222.352 213.843 183.911 203.918C177.752 202.328 171.805 199.964 166.178 196.794C124.189 163.89 116.275 100.322 149.23 51.4152C182.185 2.50834 244.03 -13.9592 290.236 12.6854ZM288.281 15.5618C277.16 9.19087 265.075 5.40106 252.705 4.04575C215.685 -0.00967424 176.103 17.7367 152.102 53.3548C148.1 59.2948 144.72 65.4507 141.948 71.7377C137.104 82.725 134.118 94.1126 132.91 105.447C132.045 113.569 132.093 121.664 133.026 129.565C136.006 154.801 148.012 178.057 168.108 193.899C206.775 215.491 262.307 197.381 294.549 149.533C326.79 101.685 322.764 43.3615 288.281 15.5618Z" fill="white"/>
<path d="M315.45 163.644C346.372 117.754 340.131 59.0058 303.479 26.4767C300.517 23.848 297.356 21.3904 294.001 19.1248C292.197 17.9071 290.365 16.7625 288.507 15.6909C277.323 9.2419 265.159 5.41008 252.705 4.04575C215.685 -0.00967424 176.103 17.7367 152.102 53.3548C148.1 59.2948 144.72 65.4507 141.948 71.7377C137.104 82.725 134.118 94.1126 132.91 105.447C132.045 113.569 132.093 121.664 133.026 129.565C136.016 154.888 148.094 178.217 168.315 194.062C170.003 195.385 171.749 196.659 173.553 197.876L171.615 200.752L170.222 199.793C169.301 199.147 168.395 198.486 167.504 197.813L166.178 196.794C124.189 163.89 116.275 100.322 149.23 51.4152C181.927 2.8908 243.065 -13.7006 289.15 12.068L290.236 12.6854C292.165 13.7979 294.067 14.9857 295.939 16.2492L297.026 16.994C342.786 48.8195 352.385 115.033 318.323 165.584C283.992 216.533 218.309 232.279 171.615 200.752L173.553 197.876C176.907 200.142 180.367 202.154 183.911 203.918C227.771 225.752 284.527 209.536 315.45 163.644Z" fill="white"/>
<path d="M270.391 25.4343C280.55 31.5449 288.292 40.371 293.47 50.8628C296.832 57.677 299.113 65.1938 300.272 73.1257C302.673 95.6696 294.326 122.615 275.716 145.621C256.019 169.969 229.619 183.979 206.061 185.031C196.764 184.345 187.765 181.636 179.583 176.715C167.572 169.491 158.939 158.471 153.929 145.391C144.848 121.684 147.664 91.208 163.824 64.2871C188.899 22.512 236.611 5.11714 270.391 25.4343ZM268.606 28.4074C237.023 9.4112 191.255 25.3224 166.794 66.0735C155.365 85.1127 150.885 105.872 152.645 124.476C153.3 131.398 154.819 138.023 157.165 144.149C161.475 155.4 168.564 164.962 178.228 171.706C179.246 172.416 180.293 173.095 181.368 173.742C189.003 178.334 197.406 180.881 206.124 181.552C228.448 180.476 253.878 167.101 273.021 143.437C282.079 132.241 288.597 120.139 292.568 108.155C296.54 96.1709 297.965 84.3039 296.836 73.576L296.835 73.5676C295.727 66.026 293.568 58.9189 290.411 52.4952C286.36 44.254 280.665 37.1375 273.435 31.6712C271.895 30.5066 270.285 29.417 268.606 28.4074Z" fill="white"/>
<path d="M282.018 37.1802C286.736 41.0051 290.55 45.6311 293.47 50.8628C297.147 57.4526 299.407 65.0035 300.272 73.1257C302.673 95.6696 294.326 122.615 275.716 145.621C256.019 169.969 229.619 183.979 206.061 185.031C196.764 184.345 187.765 181.636 179.583 176.715C167.572 169.491 158.939 158.471 153.929 145.391C152.502 138.831 152.079 131.781 152.645 124.476C154.133 105.279 162.456 84.3245 177.363 65.897C204.979 31.7602 245.767 17.9468 273.435 31.6712C276.465 33.1741 279.337 35.0073 282.018 37.1802ZM279.837 39.8757C267.347 29.7514 250.083 27.4387 231.912 32.4247C213.748 37.4089 194.972 49.6422 180.056 68.0798C160.06 92.7982 152.472 121.876 157.259 144.387C161.578 155.534 168.633 165.009 178.228 171.706C179.246 172.416 180.293 173.095 181.368 173.742C189.003 178.334 197.406 180.881 206.124 181.552C228.448 180.476 253.878 167.101 273.021 143.437C282.079 132.241 288.597 120.139 292.568 108.155C296.541 96.1679 297.965 84.2977 296.835 73.5676C296.832 73.5432 296.83 73.5188 296.827 73.4944C296.003 65.7563 293.859 58.6492 290.411 52.4952C287.693 47.6438 284.166 43.3846 279.837 39.8757Z" fill="white"/>
<path fill-rule="evenodd" clip-rule="evenodd" d="M257.741 57.0511L258.074 57.4949L258.091 58.0487L259.824 119.615L259.849 120.564L197.637 162.982L192.308 152.011L192.151 151.689L192.134 151.332L189.064 83.7274L247.739 43.8155L257.741 57.0511ZM198.999 157.857L196.086 151.862L249.546 116.582L254.872 119.761L198.999 157.857ZM198.16 146.341L207.616 126.767L235.416 108.42L246.201 114.634L198.16 146.341ZM204.515 125.225L195.284 144.332L192.697 87.3348L203.001 91.894L204.515 125.225ZM207.858 122.454L206.457 91.6315L232.596 73.8519L233.591 105.47L207.858 122.454ZM256.269 116.558L251.2 113.532L249.253 51.5689L254.642 58.7007L256.269 116.558ZM237.054 105.363L235.975 71.0557L245.822 52.6934L247.669 111.479L237.054 105.363ZM204.507 88.7659L194.396 84.2931L242.483 51.5824L232.904 69.4485L204.507 88.7659Z" fill="white"/>
</svg>
