<svg width="165" height="73" viewBox="0 0 165 73" fill="none" xmlns="http://www.w3.org/2000/svg">
<path d="M13.503 60.0921V22.4546H0V11.9997L55.5788 6.70931C49.3934 12.5019 46.7335 16.0232 43.3393 22.7533L27.5283 22.4546V60.0921H13.503Z" fill="white"/>
<path d="M105.119 63.8843C122.604 42.2978 119.399 21.0031 105.702 6.4176L133.133 12.2518V29.2036L147.68 12.2518H163.645L146.71 31.9666L164.839 60.3441H149.918L138.056 40.9279L133.133 46.4541V60.3441L105.119 63.8843Z" fill="white"/>
<path d="M97.6369 4.26745C99.3343 5.62502 100.82 7.18427 102.092 8.90692C110.029 19.6586 109.609 36.7756 100.054 50.9561C90.4987 65.1369 74.8005 71.9381 61.8685 68.5991C59.7969 68.0642 57.7963 67.2691 55.9032 66.2025C41.778 55.1337 39.1155 33.7489 50.2017 17.2964C61.288 0.843819 82.093 -4.69595 97.6369 4.26745ZM96.9794 5.23508C93.2381 3.09186 89.1728 1.81695 85.0113 1.36101C72.5576 -0.00325447 59.2421 5.96673 51.1681 17.9488C49.8216 19.9471 48.6847 22.018 47.7522 24.1329C46.1227 27.8292 45.1179 31.66 44.7117 35.473C44.4205 38.2054 44.4367 40.9286 44.7506 43.5865C45.7531 52.0759 49.7922 59.8994 56.5526 65.2286C69.5603 72.4924 88.2415 66.4001 99.0878 50.3036C109.934 34.2075 108.579 14.587 96.9794 5.23508Z" fill="white"/>
<path d="M106.119 55.0509C116.522 39.6131 114.422 19.8499 102.092 8.90692C101.096 8.02259 100.032 7.19586 98.9035 6.43368C98.2969 6.02406 97.6804 5.63899 97.0552 5.27849C93.293 3.10903 89.2009 1.81998 85.0113 1.36101C72.5576 -0.00325447 59.2421 5.96673 51.1681 17.9488C49.8216 19.9471 48.6847 22.018 47.7522 24.1329C46.1227 27.8292 45.1179 31.66 44.7117 35.473C44.4205 38.2054 44.4367 40.9286 44.7506 43.5865C45.7565 52.1051 49.8198 59.9532 56.622 65.2835C57.1901 65.7287 57.7774 66.1571 58.3841 66.5667L57.7322 67.5341L57.2637 67.2115C56.9538 66.9942 56.6491 66.7719 56.3492 66.5453L55.9032 66.2025C41.778 55.1337 39.1155 33.7489 50.2017 17.2964C61.2013 0.972481 81.7685 -4.60897 97.2716 4.05974L97.6369 4.26745C98.2859 4.64168 98.9258 5.04127 99.5554 5.46633L99.9214 5.71687C115.315 16.4231 118.544 38.6979 107.086 55.7034C95.5365 72.8428 73.4403 78.1398 57.7322 67.5341L58.3841 66.5667C59.5127 67.3287 60.6764 68.0057 61.8685 68.5991C76.6236 75.944 95.7166 70.489 106.119 55.0509Z" fill="white"/>
<path d="M90.9609 8.55622C94.3786 10.6119 96.9831 13.581 98.7248 17.1105C99.8561 19.4029 100.623 21.9315 101.013 24.5999C101.821 32.1838 99.013 41.2483 92.7523 48.9876C86.1261 57.1784 77.2452 61.8915 69.3199 62.2455C66.1925 62.0148 63.1651 61.1033 60.4128 59.4479C56.3722 57.0176 53.468 53.3107 51.7825 48.9103C48.7277 40.9353 49.6751 30.6829 55.1112 21.6265C63.5468 7.57317 79.5973 1.72143 90.9609 8.55622ZM90.3605 9.5564C79.7357 3.16598 64.3392 8.51859 56.1104 22.2275C52.2658 28.6324 50.7586 35.616 51.3506 41.8743C51.5709 44.2032 52.0819 46.4316 52.8713 48.4924C54.3211 52.2773 56.706 55.4941 59.957 57.7627C60.2995 58.0017 60.6516 58.2302 61.0132 58.4477C63.5818 59.9926 66.4086 60.8495 69.3412 61.0751C76.851 60.7131 85.406 56.2136 91.8459 48.253C94.8929 44.4865 97.0856 40.4155 98.4216 36.384C99.7576 32.3524 100.237 28.3603 99.8573 24.7514L99.8568 24.7486C99.4841 22.2115 98.7581 19.8206 97.6959 17.6597C96.3332 14.8873 94.4174 12.4933 91.985 10.6544C91.4668 10.2626 90.9252 9.89605 90.3605 9.5564Z" fill="white"/>
<path d="M94.8723 12.5076C96.4597 13.7944 97.7426 15.3505 98.7248 17.1105C99.9621 19.3274 100.722 21.8675 101.013 24.5999C101.821 32.1838 99.013 41.2483 92.7523 48.9876C86.1261 57.1784 77.2452 61.8915 69.3199 62.2455C66.1925 62.0148 63.1651 61.1033 60.4128 59.4479C56.3722 57.0176 53.468 53.3107 51.7825 48.9103C51.3025 46.7036 51.1601 44.3318 51.3506 41.8743C51.8513 35.4166 54.6511 28.3672 59.666 22.1681C68.9561 10.6843 82.6775 6.0374 91.985 10.6544C93.0042 11.1599 93.9706 11.7766 94.8723 12.5076ZM94.1388 13.4144C89.9371 10.0085 84.1293 9.23052 78.0165 10.9078C71.906 12.5846 65.5896 16.6999 60.5719 22.9024C53.845 31.2178 51.2924 40.9997 52.9029 48.5724C54.3556 52.3224 56.7292 55.5101 59.957 57.7627C60.2995 58.0017 60.6516 58.2302 61.0132 58.4477C63.5818 59.9926 66.4086 60.8495 69.3412 61.0751C76.851 60.7131 85.406 56.2136 91.8459 48.253C94.8929 44.4865 97.0856 40.4155 98.4216 36.384C99.7579 32.3514 100.237 28.3582 99.8568 24.7486C99.856 24.7403 99.8551 24.7321 99.8542 24.7239C99.577 22.1208 98.8556 19.7299 97.6959 17.6597C96.7816 16.0276 95.595 14.5948 94.1388 13.4144Z" fill="white"/>
<path fill-rule="evenodd" clip-rule="evenodd" d="M86.7056 19.1923L86.8177 19.3416L86.8234 19.5279L87.4062 40.2392L87.4148 40.5583L66.4863 54.8281L64.6934 51.1373L64.6405 51.0291L64.6348 50.9088L63.6023 28.1664L83.3406 14.7398L86.7056 19.1923ZM66.9445 53.1041L65.9644 51.0872L83.9485 39.2188L85.7403 40.2882L66.9445 53.1041ZM66.6622 49.2298L69.8433 42.6453L79.1954 36.4732L82.8233 38.5636L66.6622 49.2298ZM68.8 42.1262L65.6946 48.5541L64.8243 29.3799L68.2906 30.9137L68.8 42.1262ZM69.9247 41.1941L69.4534 30.8254L78.2465 24.8442L78.5812 35.4807L69.9247 41.1941ZM86.2104 39.2108L84.5052 38.1927L83.85 17.3481L85.6628 19.7472L86.2104 39.2108ZM79.7463 35.4448L79.3832 23.9035L82.6958 17.7264L83.3173 37.5022L79.7463 35.4448ZM68.7972 29.8613L65.3958 28.3567L81.5728 17.3526L78.3501 23.3628L68.7972 29.8613Z" fill="white"/>
</svg>
